<?xml version="1.0" encoding="UTF-8" standalone="no"?>
<svg
   width="384pt"
   height="384pt"
   version="1.1"
   viewBox="0 0 384 384"
   id="svg34823"
   sodipodi:docname="gimp.svg"
   inkscape:version="1.1 (c68e22c387, 2021-05-23)"
   xmlns:inkscape="http://www.inkscape.org/namespaces/inkscape"
   xmlns:sodipodi="http://sodipodi.sourceforge.net/DTD/sodipodi-0.dtd"
   xmlns="http://www.w3.org/2000/svg"
   xmlns:svg="http://www.w3.org/2000/svg">
  <sodipodi:namedview
     id="namedview28"
     pagecolor="#505050"
     bordercolor="#eeeeee"
     borderopacity="1"
     inkscape:pageshadow="0"
     inkscape:pageopacity="0"
     inkscape:pagecheckerboard="0"
     inkscape:document-units="pt"
     showgrid="false"
     inkscape:zoom="1.6230469"
     inkscape:cx="182.6811"
     inkscape:cy="256.30806"
     inkscape:window-width="2518"
     inkscape:window-height="1398"
     inkscape:window-x="0"
     inkscape:window-y="0"
     inkscape:window-maximized="1"
     inkscape:current-layer="g34821" />
  <defs
     id="defs34801">
    <filter
       id="alpha"
       width="1"
       height="1"
       x="0"
       y="0"
       filterUnits="objectBoundingBox">
      <feColorMatrix
         in="SourceGraphic"
         type="matrix"
         values="0 0 0 0 1 0 0 0 0 1 0 0 0 0 1 0 0 0 1 0"
         id="feColorMatrix34776" />
    </filter>
    <mask
       id="mask0">
      <g
         filter="url(#alpha)"
         id="g34781">
        <rect
           width="384"
           height="384"
           x="0"
           y="0"
           style="fill:rgb(0%,0%,0%);fill-opacity:0.94902"
           id="rect34779" />
      </g>
    </mask>
    <clipPath
       id="clip1">
      <rect
         width="384"
         height="384"
         x="0"
         y="0"
         id="rect34784" />
    </clipPath>
    <g
       id="surface5"
       clip-path="url(#clip1)">
      <path
         style="fill:rgb(0%,0%,0%);fill-opacity:0.156863"
         d="M 275.855469 71.628906 C 276.289062 72.238281 276.703125 72.855469 277.105469 73.476562 C 277.167969 73.574219 277.230469 73.667969 277.292969 73.761719 C 277.449219 74.011719 277.601562 74.257812 277.757812 74.507812 C 277.84375 74.648438 277.929688 74.785156 278.011719 74.925781 C 278.15625 75.164062 278.292969 75.398438 278.433594 75.636719 C 278.523438 75.792969 278.617188 75.953125 278.707031 76.113281 C 278.839844 76.347656 278.972656 76.582031 279.101562 76.816406 C 279.1875 76.96875 279.265625 77.121094 279.347656 77.273438 C 279.480469 77.523438 279.617188 77.769531 279.746094 78.023438 C 279.792969 78.113281 279.839844 78.207031 279.886719 78.300781 C 280.183594 78.882812 280.46875 79.46875 280.746094 80.058594 C 280.78125 80.140625 280.820312 80.21875 280.855469 80.300781 C 280.972656 80.554688 281.085938 80.804688 281.199219 81.058594 C 281.269531 81.21875 281.339844 81.382812 281.410156 81.542969 C 281.511719 81.78125 281.609375 82.019531 281.710938 82.257812 C 281.785156 82.433594 281.855469 82.613281 281.929688 82.789062 C 282.027344 83.035156 282.125 83.28125 282.21875 83.527344 C 282.277344 83.679688 282.335938 83.835938 282.394531 83.992188 C 282.492188 84.25 282.589844 84.511719 282.683594 84.773438 C 282.738281 84.925781 282.792969 85.082031 282.847656 85.238281 C 283.039062 85.789062 283.226562 86.339844 283.402344 86.894531 C 283.429688 86.984375 283.457031 87.078125 283.488281 87.167969 C 283.488281 87.167969 283.488281 87.171875 283.488281 87.175781 C 283.5625 87.410156 283.632812 87.648438 283.703125 87.886719 C 283.761719 88.082031 283.820312 88.28125 283.878906 88.476562 C 283.941406 88.703125 284.003906 88.925781 284.066406 89.152344 C 284.121094 89.363281 284.179688 89.570312 284.234375 89.78125 C 284.292969 90.003906 284.347656 90.222656 284.402344 90.445312 C 284.457031 90.660156 284.507812 90.875 284.5625 91.089844 C 284.613281 91.3125 284.664062 91.53125 284.714844 91.753906 C 284.765625 91.972656 284.8125 92.1875 284.859375 92.40625 C 284.90625 92.625 284.957031 92.84375 285 93.066406 C 285.082031 93.46875 285.160156 93.875 285.234375 94.28125 C 285.234375 94.28125 285.234375 94.285156 285.234375 94.285156 C 285.269531 94.472656 285.300781 94.664062 285.335938 94.851562 C 285.378906 95.109375 285.421875 95.367188 285.464844 95.625 C 285.496094 95.820312 285.527344 96.019531 285.558594 96.21875 C 285.59375 96.464844 285.628906 96.707031 285.664062 96.953125 C 285.691406 97.15625 285.71875 97.359375 285.746094 97.5625 C 285.777344 97.8125 285.808594 98.0625 285.839844 98.308594 C 285.859375 98.507812 285.886719 98.703125 285.90625 98.898438 C 285.9375 99.175781 285.964844 99.449219 285.992188 99.726562 C 286.007812 99.890625 286.023438 100.050781 286.039062 100.214844 C 286.070312 100.578125 286.097656 100.9375 286.125 101.300781 C 286.140625 101.519531 286.152344 101.734375 286.167969 101.953125 C 286.1875 102.257812 286.207031 102.558594 286.21875 102.863281 C 286.230469 103.039062 286.234375 103.210938 286.242188 103.386719 C 286.253906 103.65625 286.265625 103.925781 286.273438 104.191406 C 286.277344 104.386719 286.28125 104.582031 286.285156 104.777344 C 286.292969 105.035156 286.296875 105.296875 286.296875 105.554688 C 286.300781 105.742188 286.300781 105.933594 286.300781 106.121094 C 286.300781 106.402344 286.300781 106.683594 286.296875 106.964844 C 286.296875 107.125 286.296875 107.28125 286.292969 107.4375 C 286.289062 107.789062 286.277344 108.136719 286.265625 108.484375 C 286.261719 108.585938 286.261719 108.6875 286.257812 108.789062 C 286.257812 108.804688 286.253906 108.824219 286.253906 108.84375 C 286.238281 109.25 286.222656 109.65625 286.199219 110.0625 C 286.191406 110.1875 286.183594 110.316406 286.175781 110.445312 C 286.15625 110.746094 286.136719 111.050781 286.117188 111.351562 C 286.105469 111.5 286.09375 111.648438 286.082031 111.796875 C 286.050781 112.21875 286.015625 112.636719 285.976562 113.050781 L 285.976562 113.0625 C 285.929688 113.535156 285.878906 114.003906 285.824219 114.472656 C 285.824219 114.476562 285.824219 114.476562 285.824219 114.480469 C 285.785156 114.84375 285.734375 115.210938 285.6875 115.574219 C 285.671875 115.679688 285.660156 115.78125 285.648438 115.886719 C 285.574219 116.378906 285.492188 116.871094 285.40625 117.359375 C 285.390625 117.460938 285.371094 117.5625 285.351562 117.664062 C 285.265625 118.140625 285.175781 118.617188 285.078125 119.089844 C 285.0625 119.164062 285.046875 119.238281 285.03125 119.3125 C 284.933594 119.78125 284.832031 120.246094 284.726562 120.710938 C 284.71875 120.746094 284.710938 120.785156 284.699219 120.820312 C 284.589844 121.304688 284.46875 121.789062 284.34375 122.273438 C 284.320312 122.363281 284.296875 122.457031 284.273438 122.546875 C 284.148438 123.023438 284.019531 123.5 283.886719 123.972656 C 283.871094 124.019531 283.859375 124.0625 283.84375 124.109375 C 283.71875 124.554688 283.585938 125 283.449219 125.441406 C 283.421875 125.523438 283.398438 125.605469 283.375 125.683594 C 283.230469 126.148438 283.078125 126.609375 282.925781 127.070312 C 282.894531 127.160156 282.863281 127.246094 282.835938 127.335938 C 282.671875 127.808594 282.507812 128.285156 282.339844 128.753906 C 282.222656 129.078125 282.101562 129.398438 281.980469 129.71875 C 281.621094 130.679688 281.238281 131.632812 280.835938 132.582031 C 280.734375 132.820312 280.632812 133.058594 280.527344 133.292969 C 280.496094 133.375 280.460938 133.453125 280.425781 133.53125 C 280.425781 133.535156 280.421875 133.539062 280.421875 133.542969 C 280.320312 133.769531 280.222656 133.996094 280.121094 134.21875 C 280.074219 134.324219 280.027344 134.429688 279.976562 134.535156 C 279.886719 134.734375 279.796875 134.933594 279.703125 135.128906 C 279.648438 135.253906 279.59375 135.375 279.535156 135.492188 C 279.269531 136.0625 278.996094 136.625 278.71875 137.1875 C 278.6875 137.257812 278.652344 137.324219 278.621094 137.390625 C 278.332031 137.972656 278.039062 138.550781 277.738281 139.125 C 277.734375 139.132812 277.730469 139.136719 277.726562 139.144531 C 277.722656 139.152344 277.714844 139.164062 277.710938 139.175781 C 277.394531 139.78125 277.070312 140.386719 276.742188 140.984375 C 276.421875 141.566406 276.09375 142.148438 275.757812 142.726562 C 275.691406 142.847656 275.617188 142.96875 275.546875 143.089844 C 275.296875 143.523438 275.042969 143.953125 274.785156 144.382812 C 274.664062 144.585938 274.539062 144.792969 274.417969 144.996094 C 274.207031 145.34375 273.992188 145.6875 273.777344 146.035156 C 273.636719 146.257812 273.5 146.484375 273.355469 146.707031 C 273.152344 147.03125 272.945312 147.351562 272.738281 147.675781 C 272.582031 147.917969 272.425781 148.164062 272.265625 148.40625 C 272.09375 148.671875 271.917969 148.933594 271.742188 149.195312 C 271.308594 149.851562 270.867188 150.503906 270.421875 151.15625 C 270.355469 151.246094 270.292969 151.339844 270.230469 151.429688 C 269.964844 151.816406 269.695312 152.195312 269.425781 152.578125 C 269.363281 152.667969 269.296875 152.761719 269.234375 152.851562 C 264.105469 160.074219 258.253906 166.992188 252.273438 173.671875 C 252.503906 173.914062 252.839844 174.09375 253.257812 174.226562 C 255.996094 174.644531 260.703125 173.804688 263.488281 173.773438 C 263.472656 173.773438 263.457031 173.773438 263.441406 173.773438 C 263.382812 173.777344 263.316406 173.777344 263.253906 173.78125 C 263.117188 173.78125 262.980469 173.785156 262.835938 173.792969 C 276.898438 172.476562 290.679688 168.132812 303.773438 164.246094 C 303.769531 164.390625 303.757812 164.535156 303.75 164.683594 C 304.042969 164.59375 304.339844 164.507812 304.628906 164.421875 C 303.804688 186.621094 290.371094 206.453125 278.285156 225.828125 C 278.273438 225.878906 278.253906 225.9375 278.234375 225.996094 C 278.230469 226.003906 278.230469 226.007812 278.226562 226.015625 C 278.21875 226.039062 278.207031 226.066406 278.199219 226.09375 C 278.183594 226.132812 278.164062 226.171875 278.148438 226.214844 C 278.125 226.265625 278.09375 226.324219 278.066406 226.382812 C 278.046875 226.421875 278.027344 226.460938 278.003906 226.507812 C 278.003906 226.507812 278 226.511719 278 226.515625 C 277.992188 226.53125 277.980469 226.550781 277.96875 226.566406 C 277.933594 226.632812 277.898438 226.699219 277.859375 226.765625 C 277.851562 226.78125 277.84375 226.792969 277.835938 226.808594 C 277.820312 226.835938 277.800781 226.867188 277.785156 226.894531 C 277.78125 226.894531 277.777344 226.898438 277.773438 226.902344 C 277.675781 227.066406 277.570312 227.238281 277.449219 227.425781 C 277.433594 227.445312 277.425781 227.464844 277.410156 227.484375 C 277.402344 227.496094 277.394531 227.511719 277.386719 227.523438 C 277.238281 227.75 277.074219 227.992188 276.894531 228.25 C 276.890625 228.253906 276.886719 228.257812 276.882812 228.261719 C 276.882812 228.265625 276.878906 228.265625 276.875 228.269531 C 276.863281 228.292969 276.84375 228.316406 276.828125 228.335938 C 276.6875 228.535156 276.535156 228.742188 276.382812 228.953125 C 276.335938 229.019531 276.292969 229.082031 276.242188 229.152344 C 276.242188 229.152344 276.238281 229.15625 276.238281 229.15625 C 276.210938 229.195312 276.175781 229.238281 276.148438 229.277344 C 275.949219 229.542969 275.746094 229.816406 275.535156 230.09375 C 275.535156 230.09375 275.535156 230.09375 275.53125 230.097656 C 275.5 230.136719 275.464844 230.179688 275.433594 230.222656 C 275.226562 230.496094 275.011719 230.773438 274.789062 231.058594 C 274.785156 231.066406 274.78125 231.070312 274.777344 231.074219 C 274.699219 231.171875 274.621094 231.273438 274.546875 231.367188 C 274.445312 231.496094 274.34375 231.625 274.242188 231.753906 C 274.160156 231.859375 274.078125 231.964844 273.992188 232.070312 C 273.988281 232.074219 273.984375 232.078125 273.980469 232.085938 C 273.894531 232.191406 273.8125 232.296875 273.726562 232.402344 C 273.328125 232.898438 272.929688 233.390625 272.535156 233.878906 C 272.476562 233.949219 272.421875 234.019531 272.363281 234.089844 C 272.359375 234.09375 272.359375 234.097656 272.355469 234.101562 C 272.320312 234.144531 272.292969 234.175781 272.257812 234.21875 C 271.660156 234.949219 271.121094 235.597656 270.59375 236.234375 C 270.394531 236.476562 270.1875 236.730469 270.003906 236.949219 C 269.382812 237.695312 268.863281 238.316406 268.519531 238.730469 C 268.136719 239.171875 267.746094 239.613281 267.355469 240.050781 C 267.226562 240.195312 267.097656 240.335938 266.96875 240.480469 C 266.695312 240.78125 266.421875 241.082031 266.148438 241.382812 C 266 241.542969 265.851562 241.699219 265.703125 241.859375 C 265.445312 242.136719 265.1875 242.414062 264.925781 242.691406 C 264.773438 242.855469 264.617188 243.015625 264.460938 243.179688 C 264.195312 243.460938 263.925781 243.738281 263.65625 244.015625 C 263.503906 244.171875 263.351562 244.328125 263.199219 244.484375 C 262.929688 244.757812 262.65625 245.03125 262.386719 245.304688 C 262.226562 245.460938 262.070312 245.621094 261.914062 245.777344 C 261.621094 246.066406 261.328125 246.355469 261.03125 246.644531 C 260.894531 246.777344 260.757812 246.910156 260.621094 247.042969 C 260.1875 247.460938 259.75 247.878906 259.3125 248.289062 C 258.378906 249.167969 257.429688 250.035156 256.46875 250.890625 C 256.027344 251.28125 255.585938 251.667969 255.140625 252.054688 C 255.027344 252.152344 254.914062 252.25 254.804688 252.347656 C 254.441406 252.65625 254.082031 252.96875 253.714844 253.277344 C 253.617188 253.355469 253.523438 253.4375 253.425781 253.519531 C 252.964844 253.90625 252.5 254.292969 252.03125 254.675781 C 250.019531 256.328125 247.949219 257.933594 245.824219 259.492188 C 245.292969 259.882812 244.757812 260.269531 244.222656 260.652344 C 243.730469 261 243.238281 261.347656 242.746094 261.691406 C 242.621094 261.78125 242.492188 261.867188 242.363281 261.957031 C 241.96875 262.230469 241.570312 262.503906 241.167969 262.773438 C 241.054688 262.851562 240.941406 262.929688 240.824219 263.007812 C 240.316406 263.351562 239.808594 263.691406 239.296875 264.027344 C 238.796875 264.355469 238.292969 264.679688 237.789062 265.003906 C 237.640625 265.097656 237.496094 265.191406 237.347656 265.285156 C 236.960938 265.53125 236.574219 265.773438 236.183594 266.015625 C 236.039062 266.105469 235.894531 266.195312 235.75 266.285156 C 235.238281 266.605469 234.722656 266.921875 234.207031 267.234375 C 233.632812 267.578125 233.054688 267.921875 232.472656 268.261719 C 232.25 268.390625 232.027344 268.519531 231.804688 268.648438 C 230.859375 269.195312 229.914062 269.734375 228.957031 270.261719 C 227.773438 270.917969 226.578125 271.558594 225.375 272.183594 C 224.773438 272.496094 224.167969 272.804688 223.558594 273.109375 C 222.953125 273.417969 222.339844 273.71875 221.726562 274.019531 C 220.503906 274.617188 219.269531 275.199219 218.023438 275.769531 C 216.777344 276.339844 215.523438 276.890625 214.261719 277.429688 C 212.996094 277.96875 211.722656 278.492188 210.441406 279.003906 C 209.84375 279.238281 209.242188 279.472656 208.640625 279.703125 C 208.398438 279.796875 208.15625 279.886719 207.914062 279.980469 C 207.554688 280.117188 207.195312 280.25 206.832031 280.386719 C 206.566406 280.484375 206.300781 280.578125 206.03125 280.675781 C 205.679688 280.804688 205.324219 280.933594 204.96875 281.0625 C 204.699219 281.15625 204.425781 281.253906 204.152344 281.347656 C 203.8125 281.46875 203.472656 281.585938 203.128906 281.703125 C 202.851562 281.796875 202.570312 281.894531 202.292969 281.988281 C 201.941406 282.105469 201.589844 282.222656 201.238281 282.339844 C 200.96875 282.425781 200.699219 282.515625 200.429688 282.601562 C 200.066406 282.71875 199.699219 282.835938 199.335938 282.949219 C 199.066406 283.035156 198.800781 283.117188 198.53125 283.203125 C 197.996094 283.367188 197.453125 283.535156 196.914062 283.695312 C 196.839844 283.714844 196.765625 283.738281 196.691406 283.761719 C 196.023438 283.957031 195.355469 284.152344 194.683594 284.34375 C 194.011719 284.53125 193.339844 284.71875 192.664062 284.898438 C 191.988281 285.078125 191.3125 285.257812 190.636719 285.429688 C 189.957031 285.601562 189.277344 285.769531 188.597656 285.933594 C 188.578125 285.941406 188.558594 285.941406 188.539062 285.949219 C 187.941406 286.089844 187.34375 286.230469 186.746094 286.367188 C 186.5625 286.40625 186.378906 286.449219 186.199219 286.488281 C 185.757812 286.589844 185.320312 286.683594 184.878906 286.78125 C 184.675781 286.824219 184.46875 286.867188 184.265625 286.910156 C 183.671875 287.035156 183.082031 287.160156 182.488281 287.277344 C 182.46875 287.28125 182.449219 287.285156 182.429688 287.289062 C 182.308594 287.3125 182.191406 287.332031 182.074219 287.355469 C 180.8125 287.605469 179.546875 287.839844 178.277344 288.058594 L 178.273438 288.058594 C 178.171875 288.074219 178.066406 288.089844 177.964844 288.109375 C 176.675781 288.328125 175.386719 288.53125 174.09375 288.714844 C 173.394531 288.816406 172.691406 288.910156 171.992188 289.003906 C 171.289062 289.09375 170.585938 289.179688 169.882812 289.261719 C 169.179688 289.34375 168.476562 289.417969 167.769531 289.492188 C 164.945312 289.777344 162.109375 289.988281 159.261719 290.117188 C 158.550781 290.148438 157.835938 290.175781 157.125 290.199219 C 155.699219 290.246094 154.269531 290.269531 152.835938 290.273438 C 152.832031 290.273438 152.828125 290.273438 152.824219 290.273438 C 152.171875 290.273438 151.382812 290.28125 150.535156 290.292969 C 144.359375 290.375 133.539062 290.621094 125.570312 289.761719 C 122.089844 289.464844 118.664062 288.925781 115.308594 288.199219 C 106.332031 286.34375 97.886719 283.023438 90.46875 278.558594 L 150.117188 322.398438 L 206.492188 360.019531 C 293.707031 352.496094 360.691406 279.539062 360.75 192 C 360.675781 168.117188 355.535156 144.519531 345.664062 122.769531 L 339.273438 118.042969 Z M 210.324219 78.433594 L 210.304688 78.722656 L 210.210938 78.65625 L 210.105469 80.777344 C 210.125 80.824219 210.144531 80.871094 210.164062 80.917969 L 207.46875 122.082031 C 212.09375 120.78125 216.367188 119.382812 220.003906 117.722656 C 220.429688 117.519531 220.890625 117.296875 221.328125 117.089844 C 221.273438 116.722656 221.203125 116.351562 221.148438 115.984375 C 228.390625 112.519531 236.796875 108.378906 244.839844 103.488281 L 210.515625 78.875 C 210.453125 78.726562 210.390625 78.582031 210.324219 78.433594 Z M 207.46875 122.082031 Z M 263.660156 173.777344 C 263.964844 173.777344 264.242188 173.792969 264.488281 173.816406 C 264.425781 173.808594 264.359375 173.804688 264.292969 173.800781 C 264.195312 173.792969 264.097656 173.785156 263.996094 173.78125 C 263.9375 173.777344 263.878906 173.777344 263.816406 173.777344 C 263.765625 173.777344 263.710938 173.777344 263.660156 173.777344 Z M 83.964844 236.019531 C 83.902344 236.066406 83.835938 236.109375 83.769531 236.152344 C 83.835938 236.109375 83.902344 236.066406 83.964844 236.019531 Z M 83.964844 236.019531"
         id="path34787" />
    </g>
    <mask
       id="mask1">
      <g
         filter="url(#alpha)"
         id="g34792">
        <rect
           width="384"
           height="384"
           x="0"
           y="0"
           style="fill:rgb(0%,0%,0%);fill-opacity:0.101961"
           id="rect34790" />
      </g>
    </mask>
    <clipPath
       id="clip2">
      <rect
         width="384"
         height="384"
         x="0"
         y="0"
         id="rect34795" />
    </clipPath>
    <g
       id="surface8"
       clip-path="url(#clip2)">
      <path
         style="fill:rgb(99.215686%,99.215686%,99.215686%)"
         d="M 278.117188 225.507812 C 277.679688 225.492188 276.410156 226.300781 273.929688 228.335938 C 270.890625 229.996094 269.199219 230.238281 268.242188 229.648438 C 243.628906 260.929688 199.476562 282.519531 156.027344 287.78125 C 150.609375 288.488281 138.988281 289.832031 129.914062 290.101562 C 138.359375 290.601562 148.265625 290.277344 152.84375 290.269531 C 198.652344 290.15625 242.304688 268.890625 268.527344 238.726562 C 270.664062 236.132812 279.679688 225.566406 278.117188 225.507812 Z M 129.914062 290.101562 C 128.414062 290.011719 125.578125 289.757812 125.578125 289.757812 L 124.738281 289.71875 L 125.484375 290.128906 C 125.484375 290.128906 128.332031 290.175781 129.914062 290.101562 Z M 129.914062 290.101562"
         id="path34798" />
    </g>
  </defs>
  <g
     id="g34821">
    <path
       style="fill:#d0ebee;fill-opacity:1;stroke-width:1.37389"
       d="m 229.83924,46.898625 c -8.73166,14.753116 -14.49552,31.041109 -24.86939,44.790659 -8.11447,10.760276 -17.13594,21.080486 -28.78709,28.921256 22.62072,-8.29158 49.82464,-11.91413 66.95522,-19.73343 0.58497,-0.27908 1.21823,-0.58497 1.8193,-0.86942 -2.68873,-18.059014 -7.49194,-36.085826 -15.11804,-53.109065 z m 0,0"
       id="path34805" />
    <path
       style="fill:#d0ebee;fill-opacity:1;stroke-width:1.37389"
       d="m 58.313464,263.1399 c -10.942742,8.17353 -33.289769,8.1789 -23.978508,25.4651 5.001783,7.72808 8.849723,13.98031 15.00535,19.97493 0.445439,-0.30053 0.815742,-0.59569 1.062613,-0.8211 4.797848,-4.49732 10.872975,-20.4955 10.862243,-35.01784 0,-5.6458 -1.438282,-8.73166 -2.951698,-9.60109 z m 0,0"
       id="path34811" />
    <path
       style="fill:#d0ebee;fill-opacity:1;stroke-width:1.37389"
       d="m 319.71571,37.329761 c -7.48657,28.781725 -48.02678,49.073298 -75.2307,62.050025 -0.1771,0.08587 -0.35956,0.171735 -0.53667,0.257603 -0.42933,0.203939 -0.8694,0.413231 -1.28264,0.611821 -0.49374,0.22539 -0.99285,0.44542 -1.50269,0.66546 -0.0805,0.0322 -0.15563,0.0644 -0.23613,0.0966 -0.26298,0.11266 -0.53131,0.22004 -0.79964,0.33274 -0.42934,0.17711 -0.86405,0.3542 -1.30412,0.52594 -0.2254,0.0859 -0.45617,0.1771 -0.68156,0.26297 -0.48302,0.18784 -0.97138,0.36493 -1.45976,0.54741 -0.20393,0.0751 -0.40787,0.15026 -0.61181,0.2254 -0.64936,0.23077 -1.30948,0.46154 -1.98031,0.68694 -0.0322,0.0109 -0.0644,0.0268 -0.10197,0.0375 0,0 -0.006,0 -0.0107,0.005 -0.72988,0.24687 -1.47585,0.48837 -2.22719,0.72987 -0.14491,0.0429 -0.2898,0.0912 -0.43471,0.13423 -0.61181,0.19319 -1.22362,0.38103 -1.84079,0.56887 -0.19857,0.0644 -0.39714,0.12337 -0.59571,0.18246 -0.62254,0.18247 -1.24507,0.37031 -1.87834,0.55277 -0.13954,0.0375 -0.27907,0.0805 -0.41862,0.11801 -1.03041,0.30054 -2.08227,0.59034 -3.13952,0.88015 -0.93381,0.25223 -1.87836,0.50446 -2.82827,0.75671 -0.46152,0.12337 -0.92844,0.2415 -1.38997,0.36493 -0.26297,0.0644 -0.52595,0.13422 -0.78355,0.19856 -1.60465,0.41325 -3.22538,0.82649 -4.86762,1.23435 -5.15205,1.28802 -10.45436,2.57603 -15.76205,3.94991 -7.51341,1.94811 -15.03219,4.08408 -22.10015,6.67621 -5.54384,2.03397 -10.81932,4.34167 -15.59569,7.06796 -21.61716,12.32735 -37.34166,29.13056 -49.58851,48.66542 -16.470462,26.2862 -5.06081,60.08044 -50.125172,85.22353 -0.745975,0.88551 -1.663685,1.70126 -2.710194,2.46871 0.0483,-0.0376 0.101965,-0.0751 0.150267,-0.11268 1.518782,0.8694 2.951697,3.96064 2.957064,9.60642 0.0053,14.51699 -6.064394,30.52055 -10.86761,35.0125 -0.241502,0.22539 -0.611806,0.52056 -1.057244,0.8211 16.078696,15.66009 39.348793,26.33449 64.534819,28.49729 12.47226,1.34705 30.05364,0.71378 37.45971,0.70304 62.93553,-0.15563 122.90865,-29.37207 158.93544,-70.81389 3.75672,-4.56171 23.00176,-27.07511 7.42218,-14.27546 -17.45258,9.52592 -2.75851,-14.72628 -15.62789,-15.65473 -24.28978,-7.47584 4.13775,-19.4973 8.55993,-28.64756 -11.11449,-5.45795 -17.4848,-14.21109 -8.4365,-24.01609 16.61537,-12.05902 -10.2558,-2.57065 -14.24863,-6.78353 21.23073,-23.72627 41.37204,-49.60996 45.85325,-79.389892 C 336.1379,77.676823 332.5905,55.33516 319.71575,37.329811 Z M 147.00927,181.28131 c 12.84256,-0.016 13.8032,19.94275 15.21465,28.8998 2.13594,13.39533 4.61538,28.45435 -15.18247,33.47224 -1.34705,0.57424 -6.54738,3.89624 -5.01787,-0.21468 5.62432,-9.78352 -4.12701,-34.48654 -19.18066,-22.20212 -1.49732,-13.94273 3.48836,-29.89263 17.89802,-38.63502 2.35598,-0.90699 4.43291,-1.32022 6.26833,-1.32022 z m -89.651081,82.36307 c -0.08587,0.0644 -0.177101,0.12338 -0.262969,0.18246 0.08587,-0.0591 0.177101,-0.11802 0.262969,-0.18246 z M 48.487,308.35991 v 0.006 c 0.05903,0.0591 0.123429,0.11802 0.182467,0.17712 -0.05903,-0.0591 -0.118069,-0.12339 -0.182467,-0.18247 z m 0,0"
       id="path34813" />
  </g>
</svg>
